<?xml version="1.0" standalone="no"?>
<!DOCTYPE svg PUBLIC "-//W3C//DTD SVG 20010904//EN"
 "http://www.w3.org/TR/2001/REC-SVG-20010904/DTD/svg10.dtd">
<svg version="1.0" xmlns="http://www.w3.org/2000/svg"
 width="512.000000pt" height="512.000000pt" viewBox="0 0 512.000000 512.000000"
 preserveAspectRatio="xMidYMid meet">

<g transform="translate(0.000000,512.000000) scale(0.100000,-0.100000)"
fill="#000000" stroke="none">
<path d="M1680 4728 c0 -344 6 -397 58 -509 63 -137 169 -247 302 -311 36 -18
67 -33 68 -34 2 -1 -14 -29 -36 -62 l-41 -59 -78 -13 c-297 -48 -627 -183
-888 -365 -525 -366 -861 -906 -962 -1545 -15 -95 -18 -177 -18 -460 l0 -345
32 -67 c17 -37 50 -87 73 -112 52 -57 160 -112 235 -121 l56 -7 38 -77 c225
-446 774 -669 1250 -507 137 47 304 148 385 235 l30 31 1268 0 1268 0 0 165
c0 133 3 165 14 165 7 0 45 16 83 35 86 43 144 103 186 193 l32 67 0 345 c0
385 -8 464 -70 706 -169 657 -646 1224 -1264 1499 -176 79 -367 138 -535 166
l-78 13 -40 59 c-22 32 -38 60 -36 61 1 1 32 16 68 34 133 64 239 174 302 311
52 112 58 165 58 509 l0 312 -80 0 -80 0 -1 -307 c0 -258 -3 -319 -17 -374
-45 -173 -198 -316 -371 -349 -30 -5 -182 -10 -340 -9 -323 0 -373 8 -475 69
-69 42 -148 124 -182 191 -47 94 -54 150 -54 477 l0 302 -80 0 -80 0 0 -312z
m1204 -958 c25 -38 46 -73 46 -77 0 -5 -83 -91 -185 -193 l-185 -185 -185 185
c-102 102 -185 188 -185 193 0 4 21 39 46 77 l47 70 277 0 277 0 47 -70z
m-632 -377 l197 -198 -157 -183 -157 -183 -52 363 c-59 407 -58 398 -40 398 7
0 101 -89 209 -197z m838 180 c-1 -10 -24 -181 -53 -381 l-52 -363 -157 183
-157 183 197 198 c108 108 202 197 209 197 7 0 13 -8 13 -17z m-1145 -563 c43
-302 81 -550 84 -550 3 0 69 75 146 165 l140 165 3 -315 2 -315 240 0 240 0 2
315 3 315 140 -165 c77 -90 143 -165 146 -165 3 0 41 246 83 548 43 301 79
548 81 550 6 7 240 -71 338 -112 628 -263 1108 -850 1242 -1520 25 -128 45
-308 45 -417 l0 -66 -66 34 c-37 18 -73 33 -80 33 -11 0 -14 31 -14 165 l0
165 -245 0 -245 0 -5 23 c-3 12 -36 192 -74 400 -38 208 -71 380 -75 384 -4 5
-156 -16 -156 -21 0 -1 32 -174 70 -386 39 -212 70 -388 70 -392 0 -5 -422 -8
-938 -8 l-938 0 -44 46 c-101 103 -287 203 -460 247 -122 31 -369 30 -484 -1
-44 -12 -81 -20 -84 -18 -2 3 17 118 42 257 25 139 45 254 43 255 -2 2 -36 9
-76 15 -52 9 -75 9 -79 1 -4 -5 -31 -146 -61 -312 l-54 -301 -81 -56 c-141
-99 -285 -267 -346 -405 -19 -44 -21 -45 -72 -51 -29 -4 -83 -22 -120 -40
l-68 -33 0 71 c0 194 45 461 111 658 191 571 633 1048 1184 1277 81 33 301
108 326 110 3 0 41 -247 84 -550z m658 16 l37 -45 0 -330 0 -331 -80 0 -80 0
0 331 0 330 37 45 c21 24 40 44 43 44 3 0 22 -20 43 -44z m-948 -1056 c310
-79 552 -320 636 -635 17 -63 22 -108 22 -215 0 -107 -5 -152 -22 -215 -84
-314 -322 -552 -636 -636 -114 -31 -316 -31 -430 0 -249 67 -454 232 -568 457
l-26 51 26 24 c49 46 63 93 63 221 l0 117 25 -24 c46 -42 95 -60 165 -60 95 1
169 45 211 128 82 160 -33 349 -212 348 -76 0 -136 -28 -184 -84 l-35 -41 -30
29 -29 28 26 51 c128 254 373 431 658 476 86 13 247 4 340 -20z m985 -370 l0
-80 -117 0 -118 0 -42 80 -43 80 160 0 160 0 0 -80z m320 0 l0 -80 -80 0 -80
0 0 80 0 80 80 0 80 0 0 -80z m320 0 l0 -80 -80 0 -80 0 0 80 0 80 80 0 80 0
0 -80z m320 0 l0 -80 -80 0 -80 0 0 80 0 80 80 0 80 0 0 -80z m320 0 l0 -80
-80 0 -80 0 0 80 0 80 80 0 80 0 0 -80z m320 0 l0 -80 -80 0 -80 0 0 80 0 80
80 0 80 0 0 -80z m320 0 l0 -80 -80 0 -80 0 0 80 0 80 80 0 80 0 0 -80z
m-3603 -245 c72 -51 3 -168 -79 -134 -33 14 -48 37 -48 75 0 60 75 95 127 59z
m-444 -6 c14 -6 30 -22 36 -36 15 -33 15 -354 0 -387 -42 -91 -218 -33 -285
94 -25 48 -25 152 0 200 53 102 173 164 249 129z m2127 -229 l0 -240 -96 0
c-86 0 -95 2 -90 18 13 42 26 153 26 222 0 69 -13 180 -26 223 -5 15 4 17 90
17 l96 0 0 -240z m640 0 l0 -240 -240 0 -240 0 0 240 0 240 240 0 240 0 0
-240z m640 0 l0 -240 -240 0 -240 0 0 240 0 240 240 0 240 0 0 -240z m485 0
l0 -240 -162 0 -163 0 0 240 0 240 163 0 162 0 0 -240z m343 211 c82 -42 126
-116 126 -211 0 -70 -16 -114 -63 -163 -75 -82 -209 -99 -240 -31 -15 33 -15
354 0 388 6 13 21 29 33 35 28 14 97 6 144 -18z m-2108 -691 l0 -80 -160 0
-160 0 43 80 42 80 118 0 117 0 0 -80z m320 0 l0 -80 -80 0 -80 0 0 80 0 80
80 0 80 0 0 -80z m320 0 l0 -80 -80 0 -80 0 0 80 0 80 80 0 80 0 0 -80z m320
0 l0 -80 -80 0 -80 0 0 80 0 80 80 0 80 0 0 -80z m320 0 l0 -80 -80 0 -80 0 0
80 0 80 80 0 80 0 0 -80z m320 0 l0 -80 -80 0 -80 0 0 80 0 80 80 0 80 0 0
-80z m320 0 l0 -80 -80 0 -80 0 0 80 0 80 80 0 80 0 0 -80z"/>
<path d="M1332 1894 c-91 -45 -138 -130 -130 -234 6 -77 46 -144 112 -185 44
-27 58 -30 126 -30 68 0 82 3 126 30 30 19 60 49 79 79 27 44 30 58 30 126 0
68 -3 82 -30 126 -66 106 -202 145 -313 88z m163 -159 c50 -49 15 -135 -55
-135 -19 0 -40 9 -55 25 -16 15 -25 36 -25 55 0 19 9 40 25 55 15 16 36 25 55
25 19 0 40 -9 55 -25z"/>
<path d="M1929 1530 c-153 -28 -243 -205 -173 -342 92 -182 351 -178 435 6 24
54 25 148 0 201 -43 95 -158 154 -262 135z m98 -182 c39 -36 30 -99 -18 -124
-55 -28 -113 9 -113 73 0 66 81 98 131 51z"/>
<path d="M1332 1334 c-91 -45 -138 -130 -130 -234 6 -77 46 -144 112 -185 44
-27 58 -30 126 -30 68 0 82 3 126 30 30 19 60 49 79 79 27 44 30 58 30 126 0
68 -3 82 -30 126 -66 106 -202 145 -313 88z m163 -159 c50 -49 15 -135 -55
-135 -19 0 -40 9 -55 25 -16 15 -25 36 -25 55 0 19 9 40 25 55 15 16 36 25 55
25 19 0 40 -9 55 -25z"/>
<path d="M1050 901 c-49 -15 -89 -41 -122 -81 -133 -155 -23 -390 182 -390 33
0 75 6 93 13 120 51 181 206 128 322 -46 102 -179 167 -281 136z m93 -163 c32
-16 46 -39 47 -71 0 -38 -40 -77 -80 -77 -39 0 -80 39 -80 75 0 30 49 85 75
85 9 0 26 -5 38 -12z"/>
<path d="M1698 899 c-49 -14 -126 -83 -149 -134 -36 -79 -20 -187 38 -254 47
-55 105 -81 181 -81 207 0 318 234 184 390 -61 72 -164 104 -254 79z m130
-185 c29 -33 28 -69 -3 -99 -34 -35 -86 -34 -114 1 -23 30 -27 71 -8 95 35 45
86 46 125 3z"/>
<path d="M2160 4570 c0 -278 264 -474 523 -389 166 54 277 210 277 389 l0 70
-400 0 -400 0 0 -70z m620 -99 c0 -24 -70 -97 -115 -120 -100 -52 -223 -23
-292 68 -18 23 -33 47 -33 52 0 5 92 9 220 9 128 0 220 -4 220 -9z"/>
</g>
</svg>
